<svg width="54" height="54" viewBox="0 0 54 54" fill="none" xmlns="http://www.w3.org/2000/svg">
<path fill-rule="evenodd" clip-rule="evenodd" d="M17.6888 34.1604C18.5732 34.6287 19.5816 34.83 20.5847 34.7383C21.5878 34.6466 22.5398 34.2662 23.3185 33.6458C24.0973 33.0254 24.6673 32.1934 24.9553 31.2565C25.2434 30.3196 25.2364 29.3205 24.9353 28.3875C24.5536 27.1978 24.4176 25.9467 24.5352 24.7058C24.6527 23.465 25.0214 22.2589 25.6203 21.1567C26.2192 20.0545 27.0363 19.0778 28.0249 18.2826C29.0135 17.4874 30.1541 16.8895 31.3813 16.5229C32.3331 16.2336 33.1754 15.6776 33.8023 14.9248C34.4292 14.172 34.8126 13.2561 34.9043 12.2923C34.9961 11.3286 34.792 10.36 34.3178 9.50855C33.8436 8.65707 33.1204 7.96071 32.2394 7.50715C31.3583 7.05359 30.3587 6.86301 29.3663 6.9595C28.3739 7.05593 27.433 7.43505 26.6621 8.04921C25.8912 8.66331 25.3248 9.485 25.0339 10.4108C24.7432 11.3366 24.7411 12.3252 25.0279 13.2522C25.7809 15.6452 25.5263 18.2304 24.3198 20.4417C23.1133 22.6531 21.0532 24.3105 18.5904 25.0513C17.6181 25.3249 16.7529 25.8754 16.1067 26.6316C15.4605 27.3878 15.063 28.3148 14.9659 29.2926C14.8688 30.2704 15.0764 31.254 15.5619 32.116C16.0474 32.9781 16.7883 33.6788 17.6888 34.1276V34.1604ZM48.7729 39.6061C48.4155 39.054 47.9482 38.5765 47.3984 38.2017C46.8487 37.8268 46.2274 37.5621 45.571 37.4229C43.0595 36.8561 40.8813 35.3476 39.5124 33.2271C38.1435 31.1066 37.6953 28.5464 38.2655 26.1062C38.4847 25.163 38.4119 24.178 38.0562 23.2749C37.7004 22.3717 37.0776 21.5907 36.266 21.03C35.4543 20.4692 34.4899 20.1537 33.494 20.123C32.4982 20.0924 31.5153 20.3479 30.6686 20.8576C29.8219 21.3673 29.1493 22.1084 28.7352 22.9878C28.3212 23.8673 28.1841 24.8458 28.3413 25.8006C28.4985 26.7553 28.9429 27.6438 29.6187 28.3542C30.2944 29.0647 31.1715 29.5656 32.1397 29.7939C33.3922 30.0681 34.5766 30.5795 35.6251 31.2987C36.6735 32.0179 37.5654 32.9309 38.2496 33.9852C38.9337 35.0396 39.3967 36.2146 39.612 37.443C39.8273 38.6713 39.7907 39.9288 39.5042 41.1434C39.3346 41.9264 39.3648 42.7377 39.5923 43.5067C39.8199 44.2757 40.2378 44.979 40.8096 45.5555C41.3815 46.1318 42.0898 46.5638 42.8731 46.8136C43.6564 47.0634 44.4907 47.1235 45.3034 46.9887C46.1161 46.854 46.8825 46.5283 47.5358 46.0403C48.1892 45.5522 48.7095 44.9165 49.0516 44.1885C49.3937 43.4605 49.5472 42.6624 49.4986 41.8638C49.45 41.065 49.201 40.29 48.7729 39.6061ZM28.7556 33.8083C29.3662 33.5345 30.0269 33.3817 30.6991 33.3588C31.5249 33.3384 32.3432 33.5148 33.0825 33.8723C33.8219 34.2298 34.4596 34.7576 34.94 35.4096C35.4205 36.0617 35.7291 36.818 35.8387 37.6125C35.9482 38.407 35.8555 39.2154 35.5687 39.9671C35.2817 40.7188 34.8095 41.3909 34.193 41.9245C33.5766 42.4581 32.8349 42.837 32.0327 43.028C31.2305 43.2191 30.3923 43.2165 29.5913 43.0205C28.7904 42.8245 28.0511 42.441 27.4382 41.9036C26.4968 41.0554 25.3922 40.3958 24.1876 39.9625C22.9831 39.5293 21.7023 39.3309 20.4186 39.3787C19.1349 39.4266 17.8736 39.7198 16.7068 40.2414C15.5401 40.763 14.4909 41.503 13.6193 42.4187C13.0463 42.9949 12.3367 43.4262 11.5524 43.675C10.7681 43.9238 9.93294 43.9825 9.11987 43.8461C8.30681 43.7096 7.54056 43.3822 6.88792 42.8922C6.23528 42.4022 5.71619 41.7647 5.37584 41.0353C5.0355 40.3058 4.88436 39.5067 4.93551 38.7074C4.98671 37.9083 5.23864 37.1334 5.66944 36.4505C6.10018 35.7676 6.6966 35.1973 7.40676 34.7895C8.11686 34.3818 8.91909 34.1488 9.74329 34.1111C10.4129 34.0857 11.081 34.1897 11.7088 34.4171C12.3366 34.6445 12.9115 34.9908 13.4002 35.4357C15.2916 37.1343 17.7991 38.0371 20.3744 37.9466C22.9497 37.8562 25.3833 36.78 27.1433 34.9533C27.5969 34.4713 28.145 34.0821 28.7556 33.8083Z" fill="#3E334E"/>
</svg>
